PathFileType	4	(X/Y/Z)	C:/Users/opensim2020/Desktop/walking_exp_matlab/subject06_walking12_straigt_03.trc	
DataRate	CameraRate	NumFrames	NumMarkers	Units	OrigDataRate	OrigDataStartFrame	OrigNumFrames	
100.00	100.00	5	48	mm	100.00	2072	184	
Frame#	Time	LFHD			RFHD			LBHD			RBHD			C7			T10			CLAV			STRN			RBAK			LSHO			LUPA			LELB			LFRM			LWRA			LWRB			LFIN			RSHO			RUPA			RELB			RFRM			RWRA			RWRB			RFIN			LASI			RASI			LPSI			RPSI			LTHI			LKNE			LTIB			LANK			LHEE			LTOE			RTHI			RKNE			RTIB			RANK			RHEE			RTOE			*39			*40			*41			*42			*43			*44			*45			*46			*47			
		X1	Y1	Z1	X2	Y2	Z2	X3	Y3	Z3	X4	Y4	Z4	X5	Y5	Z5	X6	Y6	Z6	X7	Y7	Z7	X8	Y8	Z8	X9	Y9	Z9	X10	Y10	Z10	X11	Y11	Z11	X12	Y12	Z12	X13	Y13	Z13	X14	Y14	Z14	X15	Y15	Z15	X16	Y16	Z16	X17	Y17	Z17	X18	Y18	Z18	X19	Y19	Z19	X20	Y20	Z20	X21	Y21	Z21	X22	Y22	Z22	X23	Y23	Z23	X24	Y24	Z24	X25	Y25	Z25	X26	Y26	Z26	X27	Y27	Z27	X28	Y28	Z28	X29	Y29	Z29	X30	Y30	Z30	X31	Y31	Z31	X32	Y32	Z32	X33	Y33	Z33	X34	Y34	Z34	X35	Y35	Z35	X36	Y36	Z36	X37	Y37	Z37	X38	Y38	Z38	X39	Y39	Z39	X40	Y40	Z40	X41	Y41	Z41	X42	Y42	Z42	X43	Y43	Z43	X44	Y44	Z44	X45	Y45	Z45	X46	Y46	Z46	X47	Y47	Z47	X48	Y48	Z48	

1	0.000	-1054.43835	-741.79089	1660.74683	-925.61591	-757.53046	1645.44189	-1072.32947	-879.50751	1618.75171	-943.66394	-892.09491	1608.90698	-1018.38892	-898.05609	1454.83606	-1015.06042	-940.56946	1125.58972	-1011.56555	-790.62415	1373.46143	-1020.38110	-753.77057	1198.98022	-945.24579	-979.39288	1284.75940	-1174.03870	-833.73431	1411.70459	-1261.51709	-796.99957	1219.55164	-1285.16492	-771.14746	1111.54932	-1312.91516	-700.27582	980.45605	-1265.27319	-619.77838	881.09235	-1318.52710	-664.43213	866.61871	-1316.65381	-600.52460	803.24701	-852.86340	-845.36475	1406.25513	-769.12054	-909.17249	1214.13049	-757.09729	-915.50848	1091.69055	-739.06183	-918.55151	971.28925	-765.58490	-879.37024	824.21454	-729.91107	-935.33685	833.72870	-725.27155	-910.58246	753.22803	-1115.44531	-758.08032	964.66101	-895.15057	-770.77405	970.92847	-1092.54053	-917.07117	994.29736	-925.25995	-919.28625	991.36981	-1174.63818	-847.99817	652.72748	-1156.31653	-868.80591	489.05856	-1146.21655	-928.62067	237.23380	-1098.13220	-941.09766	65.12796	-1050.21326	-977.74420	52.36975	-1109.69104	-797.72626	32.79096	-830.14856	-749.81787	645.31543	-847.99243	-700.52045	528.82874	-860.27112	-821.27783	299.11008	-909.06805	-910.37170	137.76556	-958.25470	-952.45935	128.42761	-897.15411	-785.99237	49.33898	-1006.21619	-845.29980	1706.26233																								 
2	0.010	-1055.62378	-733.17480	1660.17798	-926.68768	-748.91705	1644.80066	-1073.36401	-870.85730	1618.33936	-944.68170	-883.39587	1608.35229	-1019.64294	-889.57428	1454.46582	-1016.40479	-932.39728	1125.24268	-1012.80304	-782.29443	1372.91907	-1021.73035	-745.65997	1198.40540	-946.85071	-971.13031	1284.44238	-1175.33691	-825.24573	1411.50476	-1262.70654	-786.61340	1219.88135	-1286.18994	-759.09601	1112.23645	-1313.64148	-684.77527	982.84692	-1266.02332	-600.82446	886.41772	-1318.51318	-645.64264	869.99445	-1316.80103	-579.63977	808.50873	-854.17255	-837.04144	1405.65698	-770.69061	-902.36218	1214.02954	-758.64709	-909.93097	1091.67773	-740.64307	-914.13318	971.26831	-766.70068	-875.92413	824.05066	-731.55457	-932.25256	833.94684	-726.96661	-908.53967	753.12421	-1116.49341	-750.01282	963.68170	-896.25714	-762.59070	970.67804	-1093.54333	-908.83789	993.79803	-926.24542	-911.06561	991.34436	-1174.93787	-841.82513	652.01874	-1156.51123	-864.14142	488.60403	-1146.16846	-926.46265	237.34314	-1098.00159	-940.77924	65.34394	-1050.01208	-977.61200	52.74294	-1109.80139	-797.67578	32.77470	-830.35034	-739.91107	646.45642	-849.29199	-690.22815	530.05347	-861.43604	-802.37030	295.00281	-909.93597	-882.54047	128.79579	-959.40131	-923.70337	117.14446	-896.57104	-753.69794	47.10030	-1007.17657	-836.52289	1705.76074																								 
3	0.020	-1056.42822	-724.40167	1659.45300	-927.78729	-740.06183	1643.98059	-1074.66699	-862.31293	1617.63428	-945.54047	-874.65662	1607.64233	-1020.81500	-881.08423	1453.90210	-1017.61902	-924.23322	1124.81030	-1013.97314	-773.91589	1372.18164	-1023.11609	-737.48828	1197.67249	-948.27167	-962.87268	1283.93970	-1176.32458	-816.65570	1410.98486	-1263.66699	-776.36481	1219.93921	-1287.08875	-747.32886	1112.62256	-1314.27759	-669.78186	985.06116	-1266.65430	-582.08856	891.88147	-1318.22803	-627.28564	873.30695	-1316.54285	-559.28998	813.86792	-855.28430	-828.57471	1404.87769	-772.19257	-895.60632	1213.80725	-760.13629	-904.06476	1091.48779	-742.15393	-909.54999	971.14844	-768.01135	-872.55920	823.51233	-732.97607	-928.91351	834.00568	-728.65070	-906.08411	752.88354	-1117.31470	-741.79791	962.60065	-897.31079	-754.33478	970.42468	-1094.43579	-900.57739	993.25494	-927.14966	-902.91632	991.19965	-1175.23706	-835.63263	651.27789	-1156.70056	-859.31732	488.09021	-1146.12256	-924.30029	237.42242	-1097.87830	-940.42651	65.59809	-1049.86560	-977.38660	53.14294	-1109.78564	-797.72815	32.68008	-830.86017	-730.26788	646.93170	-849.96777	-680.19208	531.05823	-862.32697	-783.38940	290.76019	-910.29279	-854.11816	120.09246	-960.10754	-894.28986	106.26895	-895.66174	-721.40076	45.06883	-1007.95715	-827.76624	1705.07776																								 
4	0.030	-1057.32263	-715.86365	1658.69434	-928.56354	-731.24725	1642.93860	-1075.42175	-853.68115	1616.96350	-946.35938	-865.77722	1606.73499	-1021.86945	-872.54333	1453.22913	-1018.61322	-915.79224	1123.99402	-1015.12231	-765.49017	1371.33423	-1024.41785	-729.37439	1196.75195	-949.58490	-954.39935	1283.27917	-1177.38501	-808.16956	1410.49426	-1264.62769	-766.48761	1219.80151	-1287.75781	-735.83752	1112.67871	-1314.62256	-655.10675	987.04584	-1267.14368	-563.79095	897.43652	-1317.63733	-609.32318	876.57574	-1316.11792	-539.42456	819.47968	-856.32013	-819.84747	1403.95154	-773.51642	-888.49805	1213.43250	-761.53638	-897.99066	1091.18066	-743.61591	-904.58124	970.83435	-769.63019	-869.30219	822.69183	-734.67065	-925.43890	833.82507	-730.16998	-903.32587	752.51599	-1118.00403	-733.47754	961.44952	-898.00580	-746.24768	969.74701	-1095.36450	-892.23938	992.63428	-928.01190	-894.75818	990.87744	-1175.81531	-829.66833	650.61084	-1156.77332	-854.52222	487.60083	-1145.98315	-921.85297	237.46460	-1097.74988	-939.99683	65.80235	-1049.50256	-977.43451	53.77603	-1109.92493	-797.42554	32.78497	-830.95544	-720.96863	647.35327	-850.88336	-670.45416	531.27551	-862.80914	-764.25067	286.42960	-910.19049	-825.26740	111.82260	-960.14063	-864.52686	95.99568	-894.57104	-689.05182	43.39342	-1008.62231	-819.03375	1704.18628																								 
5	0.040	-1058.42981	-707.34723	1658.04187	-929.38568	-722.35333	1641.93188	-1076.06909	-845.08618	1616.15173	-946.90808	-856.97217	1605.63269	-1022.78278	-863.97296	1452.47278	-1019.47461	-907.45850	1123.24670	-1016.36908	-756.86664	1370.38379	-1025.55737	-721.06268	1195.76489	-950.64764	-945.90167	1282.50635	-1178.42090	-799.56848	1409.79053	-1265.31653	-756.58167	1219.43115	-1288.38647	-724.71222	1112.43835	-1314.89917	-640.89612	988.96362	-1267.52954	-545.96240	903.10956	-1316.76965	-591.74530	879.78162	-1315.53772	-519.86707	825.03082	-857.27588	-811.09589	1402.93726	-774.57031	-881.09161	1212.83594	-762.89655	-891.62817	1090.67480	-745.02502	-899.42255	970.40839	-771.43634	-865.87494	821.89008	-736.07806	-921.61194	833.64172	-731.56183	-900.43994	752.07428	-1118.82288	-725.33008	959.98425	-898.79004	-737.92767	969.08734	-1096.16150	-883.82495	991.89813	-928.78076	-886.56360	990.33490	-1175.76526	-823.13391	649.75580	-1156.86072	-849.63983	486.96149	-1145.83582	-919.37231	237.44978	-1097.59802	-939.60278	66.05341	-1049.11536	-977.39374	54.31853	-1110.12549	-796.97089	32.95490	-831.52728	-712.23163	647.02600	-851.85065	-661.46167	531.22925	-863.09161	-744.90546	282.10107	-909.56183	-795.94238	104.05033	-959.64252	-834.53607	86.75566	-893.36322	-656.59210	41.93968	-1009.11432	-810.27582	1703.32190																								 
